<svg version="1.1" xmlns="http://www.w3.org/2000/svg" xmlns:xlink="http://www.w3.org/1999/xlink" width="1043.841796875" height="669"><defs/><g><g transform="translate(-142,-142) scale(1,1)"><path fill="#ffffff" stroke="none" d="M 360.40935031960225 177.68 C 360.40935031960225 172.886167936 364.29519264454774 169 369.088623046875 169 C 373.88205344920226 169 377.76789577414775 172.886167936 377.76789577414775 177.68 C 377.76789577414775 182.47383206400002 373.88205344920226 186.36 369.088623046875 186.36 C 364.29519264454774 186.36 360.40935031960225 182.47383206400002 360.40935031960225 177.68 Z"/></g><g transform="translate(-142,-142) scale(1,1)"><path fill="none" stroke="#000000" d="M 360.40935031960225 177.68 C 360.40935031960225 172.886167936 364.29519264454774 169 369.088623046875 169 C 373.88205344920226 169 377.76789577414775 172.886167936 377.76789577414775 177.68 C 377.76789577414775 182.47383206400002 373.88205344920226 186.36 369.088623046875 186.36 C 364.29519264454774 186.36 360.40935031960225 182.47383206400002 360.40935031960225 177.68 Z" stroke-miterlimit="10"/></g><g transform="translate(-142,-142) scale(1,1)"><path fill="none" stroke="#000000" d="M 369.088623046875 186.36 L 369.088623046875 203.64" stroke-miterlimit="10"/></g><g transform="translate(-142,-142) scale(1,1)"><path fill="none" stroke="#000000" d="M 359.89880486505683 192.84 L 378.27844122869317 192.84" stroke-miterlimit="10"/></g><g transform="translate(-142,-142) scale(1,1)"><path fill="none" stroke="#000000" d="M 369.088623046875 203.64 L 356.32498668323865 221" stroke-miterlimit="10"/></g><g transform="translate(-142,-142) scale(1,1)"><path fill="none" stroke="#000000" d="M 369.088623046875 203.64 L 381.85225941051135 221" stroke-miterlimit="10"/></g><g transform="translate(-142,-142) scale(1,1)"><g><path fill="none" stroke="none"/><text fill="#000000" stroke="none" font-family="Arial" font-size="13px" font-style="normal" font-weight="bold" text-decoration="none" x="350.66455078125" y="241.5">Admin</text></g></g><g transform="translate(-142,-142) scale(1,1)"><path fill="#ffffff" stroke="none" d="M 359.27116672585225 729.6800000000001 C 359.27116672585225 724.8861679360001 363.15700905079774 721 367.950439453125 721 C 372.74386985545226 721 376.62971218039775 724.8861679360001 376.62971218039775 729.6800000000001 C 376.62971218039775 734.473832064 372.74386985545226 738.36 367.950439453125 738.36 C 363.15700905079774 738.36 359.27116672585225 734.473832064 359.27116672585225 729.6800000000001 Z"/></g><g transform="translate(-142,-142) scale(1,1)"><path fill="none" stroke="#000000" d="M 359.27116672585225 729.6800000000001 C 359.27116672585225 724.8861679360001 363.15700905079774 721 367.950439453125 721 C 372.74386985545226 721 376.62971218039775 724.8861679360001 376.62971218039775 729.6800000000001 C 376.62971218039775 734.473832064 372.74386985545226 738.36 367.950439453125 738.36 C 363.15700905079774 738.36 359.27116672585225 734.473832064 359.27116672585225 729.6800000000001 Z" stroke-miterlimit="10"/></g><g transform="translate(-142,-142) scale(1,1)"><path fill="none" stroke="#000000" d="M 367.950439453125 738.36 L 367.950439453125 755.64" stroke-miterlimit="10"/></g><g transform="translate(-142,-142) scale(1,1)"><path fill="none" stroke="#000000" d="M 358.76062127130683 744.84 L 377.14025763494317 744.84" stroke-miterlimit="10"/></g><g transform="translate(-142,-142) scale(1,1)"><path fill="none" stroke="#000000" d="M 367.950439453125 755.64 L 355.18680308948865 773" stroke-miterlimit="10"/></g><g transform="translate(-142,-142) scale(1,1)"><path fill="none" stroke="#000000" d="M 367.950439453125 755.64 L 380.71407581676135 773" stroke-miterlimit="10"/></g><g transform="translate(-142,-142) scale(1,1)"><g><path fill="none" stroke="none"/><text fill="#000000" stroke="none" font-family="Arial" font-size="13px" font-style="normal" font-weight="bold" text-decoration="none" x="342.299560546875" y="793.5">Operator</text></g></g><g transform="translate(-142,-142) scale(1,1)"><path fill="#C0C0C0" stroke="none" d="M 664 185 C 664 170.6405952 708.77152 159 764 159 C 819.22848 159 864 170.6405952 864 185 C 864 199.3594048 819.22848 211 764 211 C 708.77152 211 664 199.3594048 664 185 Z" opacity="0.2"/></g><g transform="translate(-142,-142) scale(1,1)"><path fill="#ffffff" stroke="none" d="M 657 178 C 657 163.6405952 701.77152 152 757 152 C 812.22848 152 857 163.6405952 857 178 C 857 192.3594048 812.22848 204 757 204 C 701.77152 204 657 192.3594048 657 178 Z"/></g><g transform="translate(-142,-142) scale(1,1)"><path fill="none" stroke="#000000" d="M 657 178 C 657 163.6405952 701.77152 152 757 152 C 812.22848 152 857 163.6405952 857 178 C 857 192.3594048 812.22848 204 757 204 C 701.77152 204 657 192.3594048 657 178 Z" stroke-miterlimit="10"/></g><g transform="translate(-142,-142) scale(1,1)"><g><path fill="none" stroke="none"/><text fill="#000000" stroke="none" font-family="Arial" font-size="13px" font-style="normal" font-weight="normal" text-decoration="none" x="717.254150390625" y="176.5">«Create/Edit»</text></g></g><g transform="translate(-142,-142) scale(1,1)"><g><path fill="none" stroke="none"/><text fill="#000000" stroke="none" font-family="Arial" font-size="13px" font-style="normal" font-weight="bold" text-decoration="none" x="743.2763671875" y="191.5">User</text></g></g><g transform="translate(-142,-142) scale(1,1)"><path fill="none" stroke="#000000" d="M 395 190 L 416 176 L 656 177" stroke-miterlimit="10"/></g><g transform="translate(-142,-142) scale(1,1)"><path fill="#C0C0C0" stroke="none" d="M 664 398 C 664 383.6405952 708.77152 372 764 372 C 819.22848 372 864 383.6405952 864 398 C 864 412.3594048 819.22848 424 764 424 C 708.77152 424 664 412.3594048 664 398 Z" opacity="0.2"/></g><g transform="translate(-142,-142) scale(1,1)"><path fill="#ffffff" stroke="none" d="M 657 391 C 657 376.6405952 701.77152 365 757 365 C 812.22848 365 857 376.6405952 857 391 C 857 405.3594048 812.22848 417 757 417 C 701.77152 417 657 405.3594048 657 391 Z"/></g><g transform="translate(-142,-142) scale(1,1)"><path fill="none" stroke="#000000" d="M 657 391 C 657 376.6405952 701.77152 365 757 365 C 812.22848 365 857 376.6405952 857 391 C 857 405.3594048 812.22848 417 757 417 C 701.77152 417 657 405.3594048 657 391 Z" stroke-miterlimit="10"/></g><g transform="translate(-142,-142) scale(1,1)"><g><path fill="none" stroke="none"/><text fill="#000000" stroke="none" font-family="Arial" font-size="13px" font-style="normal" font-weight="normal" text-decoration="none" x="696.6591796875" y="389.5">«Create/Edit/Delete»</text></g></g><g transform="translate(-142,-142) scale(1,1)"><g><path fill="none" stroke="none"/><text fill="#000000" stroke="none" font-family="Arial" font-size="13px" font-style="normal" font-weight="bold" text-decoration="none" x="727.37548828125" y="404.5"> Company</text></g></g><g transform="translate(-142,-142) scale(1,1)"><path fill="none" stroke="#000000" d="M 401 759 L 512 760 L 512 424 L 760 424 L 759 418" stroke-miterlimit="10"/></g><g transform="translate(-142,-142) scale(1,1)"><path fill="#C0C0C0" stroke="none" d="M 664 540 C 664 525.6405952 708.77152 514 764 514 C 819.22848 514 864 525.6405952 864 540 C 864 554.3594048 819.22848 566 764 566 C 708.77152 566 664 554.3594048 664 540 Z" opacity="0.2"/></g><g transform="translate(-142,-142) scale(1,1)"><path fill="#ffffff" stroke="none" d="M 657 533 C 657 518.6405952 701.77152 507 757 507 C 812.22848 507 857 518.6405952 857 533 C 857 547.3594048 812.22848 559 757 559 C 701.77152 559 657 547.3594048 657 533 Z"/></g><g transform="translate(-142,-142) scale(1,1)"><path fill="none" stroke="#000000" d="M 657 533 C 657 518.6405952 701.77152 507 757 507 C 812.22848 507 857 518.6405952 857 533 C 857 547.3594048 812.22848 559 757 559 C 701.77152 559 657 547.3594048 657 533 Z" stroke-miterlimit="10"/></g><g transform="translate(-142,-142) scale(1,1)"><g><path fill="none" stroke="none"/><text fill="#000000" stroke="none" font-family="Arial" font-size="13px" font-style="normal" font-weight="normal" text-decoration="none" x="709.66552734375" y="531.5">«Create/Delete»</text></g></g><g transform="translate(-142,-142) scale(1,1)"><g><path fill="none" stroke="none"/><text fill="#000000" stroke="none" font-family="Arial" font-size="13px" font-style="normal" font-weight="bold" text-decoration="none" x="718.345947265625" y="546.5">Cash register</text></g></g><g transform="translate(-142,-142) scale(1,1)"><path fill="#C0C0C0" stroke="none" d="M 664 682 C 664 667.6405952 708.77152 656 764 656 C 819.22848 656 864 667.6405952 864 682 C 864 696.3594048 819.22848 708 764 708 C 708.77152 708 664 696.3594048 664 682 Z" opacity="0.2"/></g><g transform="translate(-142,-142) scale(1,1)"><path fill="#ffffff" stroke="none" d="M 657 675 C 657 660.6405952 701.77152 649 757 649 C 812.22848 649 857 660.6405952 857 675 C 857 689.3594048 812.22848 701 757 701 C 701.77152 701 657 689.3594048 657 675 Z"/></g><g transform="translate(-142,-142) scale(1,1)"><path fill="none" stroke="#000000" d="M 657 675 C 657 660.6405952 701.77152 649 757 649 C 812.22848 649 857 660.6405952 857 675 C 857 689.3594048 812.22848 701 757 701 C 701.77152 701 657 689.3594048 657 675 Z" stroke-miterlimit="10"/></g><g transform="translate(-142,-142) scale(1,1)"><g><path fill="none" stroke="none"/><text fill="#000000" stroke="none" font-family="Arial" font-size="13px" font-style="normal" font-weight="bold" text-decoration="none" x="706.06005859375" y="682">Show sale history</text></g></g><g transform="translate(-142,-142) scale(1,1)"><path fill="none" stroke="#000000" d="M 401 773 L 408 776 L 528 776 L 528 568 L 760 568 L 759 560" stroke-miterlimit="10"/></g><g transform="translate(-142,-142) scale(1,1)"><path fill="none" stroke="#000000" d="M 401 786 L 408 792 L 544 792 L 544 704 L 760 712 L 759 702" stroke-miterlimit="10"/></g><g transform="translate(-142,-142) scale(1,1)"><path fill="#C0C0C0" stroke="none" d="M 951 416 C 951 406.6111584 973.6096176 399 1001.5 399 C 1029.3903824 399 1052 406.6111584 1052 416 C 1052 425.3888416 1029.3903824 433 1001.5 433 C 973.6096176 433 951 425.3888416 951 416 Z" opacity="0.2"/></g><g transform="translate(-142,-142) scale(1,1)"><path fill="#ffffff" stroke="none" d="M 944 409 C 944 399.6111584 966.6096176 392 994.5 392 C 1022.3903824 392 1045 399.6111584 1045 409 C 1045 418.3888416 1022.3903824 426 994.5 426 C 966.6096176 426 944 418.3888416 944 409 Z"/></g><g transform="translate(-142,-142) scale(1,1)"><path fill="none" stroke="#000000" d="M 944 409 C 944 399.6111584 966.6096176 392 994.5 392 C 1022.3903824 392 1045 399.6111584 1045 409 C 1045 418.3888416 1022.3903824 426 994.5 426 C 966.6096176 426 944 418.3888416 944 409 Z" stroke-miterlimit="10"/></g><g transform="translate(-142,-142) scale(1,1)"><g><path fill="none" stroke="none"/><text fill="#000000" stroke="none" font-family="Arial" font-size="13px" font-style="normal" font-weight="bold" text-decoration="none" x="973.905029296875" y="416">Invoice</text></g></g><g transform="translate(-142,-142) scale(1,1)"><path fill="#C0C0C0" stroke="none" d="M 951 520 C 951 510.6111584 973.6096176 503 1001.5 503 C 1029.3903824 503 1052 510.6111584 1052 520 C 1052 529.3888416 1029.3903824 537 1001.5 537 C 973.6096176 537 951 529.3888416 951 520 Z" opacity="0.2"/></g><g transform="translate(-142,-142) scale(1,1)"><path fill="#ffffff" stroke="none" d="M 944 513 C 944 503.6111584 966.6096176 496 994.5 496 C 1022.3903824 496 1045 503.6111584 1045 513 C 1045 522.3888416 1022.3903824 530 994.5 530 C 966.6096176 530 944 522.3888416 944 513 Z"/></g><g transform="translate(-142,-142) scale(1,1)"><path fill="none" stroke="#000000" d="M 944 513 C 944 503.6111584 966.6096176 496 994.5 496 C 1022.3903824 496 1045 503.6111584 1045 513 C 1045 522.3888416 1022.3903824 530 994.5 530 C 966.6096176 530 944 522.3888416 944 513 Z" stroke-miterlimit="10"/></g><g transform="translate(-142,-142) scale(1,1)"><g><path fill="none" stroke="none"/><text fill="#000000" stroke="none" font-family="Arial" font-size="13px" font-style="normal" font-weight="bold" text-decoration="none" x="968.84912109375" y="520">Payment</text></g></g><g transform="translate(-142,-142) scale(1,1)"><path fill="#C0C0C0" stroke="none" d="M 664 469 C 664 454.6405952 708.77152 443 764 443 C 819.22848 443 864 454.6405952 864 469 C 864 483.3594048 819.22848 495 764 495 C 708.77152 495 664 483.3594048 664 469 Z" opacity="0.2"/></g><g transform="translate(-142,-142) scale(1,1)"><path fill="#ffffff" stroke="none" d="M 657 462 C 657 447.6405952 701.77152 436 757 436 C 812.22848 436 857 447.6405952 857 462 C 857 476.3594048 812.22848 488 757 488 C 701.77152 488 657 476.3594048 657 462 Z"/></g><g transform="translate(-142,-142) scale(1,1)"><path fill="none" stroke="#000000" d="M 657 462 C 657 447.6405952 701.77152 436 757 436 C 812.22848 436 857 447.6405952 857 462 C 857 476.3594048 812.22848 488 757 488 C 701.77152 488 657 476.3594048 657 462 Z" stroke-miterlimit="10"/></g><g transform="translate(-142,-142) scale(1,1)"><g><path fill="none" stroke="none"/><text fill="#000000" stroke="none" font-family="Arial" font-size="13px" font-style="normal" font-weight="normal" text-decoration="none" x="716.898681640625" y="460.5">«Sell/Deliver»</text></g></g><g transform="translate(-142,-142) scale(1,1)"><g><path fill="none" stroke="none"/><text fill="#000000" stroke="none" font-family="Arial" font-size="13px" font-style="normal" font-weight="bold" text-decoration="none" x="734.59912109375" y="475.5">Product</text></g></g><g transform="translate(-142,-142) scale(1,1)"><path fill="none" stroke="#000000" d="M 401 766 L 408 768 L 520 768 L 520 496 L 760 496 L 759 489" stroke-miterlimit="10"/></g><g transform="translate(-142,-142) scale(1,1)"><path fill="none" stroke="#000000" d="M 858 484 L 943 502" stroke-miterlimit="10" stroke-dasharray="3"/></g><g transform="translate(-142,-142) scale(1,1)"><path fill="none" stroke="#000000" d="M 932.1857180962331 504.01278585693103 L 943 502 L 933.9298934036713 495.7764024606958" stroke-miterlimit="10"/></g><g transform="translate(-142,-142) scale(1,1)"><g><path fill="none" stroke="none"/><text fill="#000000" stroke="none" font-family="Arial" font-size="13px" font-style="normal" font-weight="normal" text-decoration="none" x="878.5" y="469.5">«include»</text></g></g><g transform="translate(-142,-142) scale(1,1)"><path fill="#C0C0C0" stroke="none" d="M 664 753 C 664 738.6405952 708.77152 727 764 727 C 819.22848 727 864 738.6405952 864 753 C 864 767.3594048 819.22848 779 764 779 C 708.77152 779 664 767.3594048 664 753 Z" opacity="0.2"/></g><g transform="translate(-142,-142) scale(1,1)"><path fill="#ffffff" stroke="none" d="M 657 746 C 657 731.6405952 701.77152 720 757 720 C 812.22848 720 857 731.6405952 857 746 C 857 760.3594048 812.22848 772 757 772 C 701.77152 772 657 760.3594048 657 746 Z"/></g><g transform="translate(-142,-142) scale(1,1)"><path fill="none" stroke="#000000" d="M 657 746 C 657 731.6405952 701.77152 720 757 720 C 812.22848 720 857 731.6405952 857 746 C 857 760.3594048 812.22848 772 757 772 C 701.77152 772 657 760.3594048 657 746 Z" stroke-miterlimit="10"/></g><g transform="translate(-142,-142) scale(1,1)"><g><path fill="none" stroke="none"/><text fill="#000000" stroke="none" font-family="Arial" font-size="13px" font-style="normal" font-weight="bold" text-decoration="none" x="717.254150390625" y="753">Show storage</text></g></g><g transform="translate(-142,-142) scale(1,1)"><path fill="none" stroke="#000000" d="M 401 793 L 408 800 L 760 800 L 759 773" stroke-miterlimit="10"/></g><g transform="translate(-142,-142) scale(1,1)"><path fill="#C0C0C0" stroke="none" d="M 664 611 C 664 596.6405952 708.77152 585 764 585 C 819.22848 585 864 596.6405952 864 611 C 864 625.3594048 819.22848 637 764 637 C 708.77152 637 664 625.3594048 664 611 Z" opacity="0.2"/></g><g transform="translate(-142,-142) scale(1,1)"><path fill="#ffffff" stroke="none" d="M 657 604 C 657 589.6405952 701.77152 578 757 578 C 812.22848 578 857 589.6405952 857 604 C 857 618.3594048 812.22848 630 757 630 C 701.77152 630 657 618.3594048 657 604 Z"/></g><g transform="translate(-142,-142) scale(1,1)"><path fill="none" stroke="#000000" d="M 657 604 C 657 589.6405952 701.77152 578 757 578 C 812.22848 578 857 589.6405952 857 604 C 857 618.3594048 812.22848 630 757 630 C 701.77152 630 657 618.3594048 657 604 Z" stroke-miterlimit="10"/></g><g transform="translate(-142,-142) scale(1,1)"><g><path fill="none" stroke="none"/><text fill="#000000" stroke="none" font-family="Arial" font-size="13px" font-style="normal" font-weight="bold" text-decoration="none" x="714.848388671875" y="611">View inventory</text></g></g><g transform="translate(-142,-142) scale(1,1)"><path fill="none" stroke="#000000" d="M 401 780 L 408 784 L 536 784 L 536 632 L 760 640 L 759 631" stroke-miterlimit="10"/></g><g transform="translate(-142,-142) scale(1,1)"><path fill="#C0C0C0" stroke="none" d="M 664 327 C 664 312.6405952 708.77152 301 764 301 C 819.22848 301 864 312.6405952 864 327 C 864 341.3594048 819.22848 353 764 353 C 708.77152 353 664 341.3594048 664 327 Z" opacity="0.2"/></g><g transform="translate(-142,-142) scale(1,1)"><path fill="#ffffff" stroke="none" d="M 657 320 C 657 305.6405952 701.77152 294 757 294 C 812.22848 294 857 305.6405952 857 320 C 857 334.3594048 812.22848 346 757 346 C 701.77152 346 657 334.3594048 657 320 Z"/></g><g transform="translate(-142,-142) scale(1,1)"><path fill="none" stroke="#000000" d="M 657 320 C 657 305.6405952 701.77152 294 757 294 C 812.22848 294 857 305.6405952 857 320 C 857 334.3594048 812.22848 346 757 346 C 701.77152 346 657 334.3594048 657 320 Z" stroke-miterlimit="10"/></g><g transform="translate(-142,-142) scale(1,1)"><g><path fill="none" stroke="none"/><text fill="#000000" stroke="none" font-family="Arial" font-size="13px" font-style="normal" font-weight="normal" text-decoration="none" x="696.6591796875" y="318.5">«Create/Edit/Delete»</text></g></g><g transform="translate(-142,-142) scale(1,1)"><g><path fill="none" stroke="none"/><text fill="#000000" stroke="none" font-family="Arial" font-size="13px" font-style="normal" font-weight="bold" text-decoration="none" x="734.234130859375" y="333.5">Storage</text></g></g><g transform="translate(-142,-142) scale(1,1)"><path fill="none" stroke="#000000" d="M 401 757 L 504 752 L 504 352 L 760 352 L 760 347" stroke-miterlimit="10"/></g><g transform="translate(-142,-142) scale(1,1)"><path fill="#C0C0C0" stroke="none" d="M 664 256 C 664 241.6405952 708.77152 230 764 230 C 819.22848 230 864 241.6405952 864 256 C 864 270.3594048 819.22848 282 764 282 C 708.77152 282 664 270.3594048 664 256 Z" opacity="0.2"/></g><g transform="translate(-142,-142) scale(1,1)"><path fill="#ffffff" stroke="none" d="M 657 249 C 657 234.6405952 701.77152 223 757 223 C 812.22848 223 857 234.6405952 857 249 C 857 263.3594048 812.22848 275 757 275 C 701.77152 275 657 263.3594048 657 249 Z"/></g><g transform="translate(-142,-142) scale(1,1)"><path fill="none" stroke="#000000" d="M 657 249 C 657 234.6405952 701.77152 223 757 223 C 812.22848 223 857 234.6405952 857 249 C 857 263.3594048 812.22848 275 757 275 C 701.77152 275 657 263.3594048 657 249 Z" stroke-miterlimit="10"/></g><g transform="translate(-142,-142) scale(1,1)"><g><path fill="none" stroke="none"/><text fill="#000000" stroke="none" font-family="Arial" font-size="13px" font-style="normal" font-weight="normal" text-decoration="none" x="696.6591796875" y="247.5">«Create/Edit/Delete»</text></g></g><g transform="translate(-142,-142) scale(1,1)"><g><path fill="none" stroke="none"/><text fill="#000000" stroke="none" font-family="Arial" font-size="13px" font-style="normal" font-weight="bold" text-decoration="none" x="730.263671875" y="262.5">Inventory</text></g></g><g transform="translate(-142,-142) scale(1,1)"><path fill="none" stroke="#000000" d="M 401 747 L 408 744 L 496 744 L 496 280 L 760 280 L 760 276" stroke-miterlimit="10"/></g><g transform="translate(-142,-142) scale(1,1)"><path fill="none" stroke="#000000" d="M 858 439 L 943 420" stroke-miterlimit="10" stroke-dasharray="3"/></g><g transform="translate(-142,-142) scale(1,1)"><path fill="none" stroke="#000000" d="M 934.0003707520536 426.32508287688853 L 943 420 L 932.1637921367975 418.1088101244271" stroke-miterlimit="10"/></g><g transform="translate(-142,-142) scale(1,1)"><g><path fill="none" stroke="none"/><text fill="#000000" stroke="none" font-family="Arial" font-size="13px" font-style="normal" font-weight="normal" text-decoration="none" x="866.5" y="405.5">«extend»</text></g></g><g transform="translate(-142,-142) scale(1,1)"><path fill="#ffffff" stroke="none" d="M 1131.2416257102273 417.68 C 1131.2416257102273 412.886167936 1135.1274680351728 409 1139.9208984375 409 C 1144.7143288398272 409 1148.6001711647727 412.886167936 1148.6001711647727 417.68 C 1148.6001711647727 422.473832064 1144.7143288398272 426.36 1139.9208984375 426.36 C 1135.1274680351728 426.36 1131.2416257102273 422.473832064 1131.2416257102273 417.68 Z"/></g><g transform="translate(-142,-142) scale(1,1)"><path fill="none" stroke="#000000" d="M 1131.2416257102273 417.68 C 1131.2416257102273 412.886167936 1135.1274680351728 409 1139.9208984375 409 C 1144.7143288398272 409 1148.6001711647727 412.886167936 1148.6001711647727 417.68 C 1148.6001711647727 422.473832064 1144.7143288398272 426.36 1139.9208984375 426.36 C 1135.1274680351728 426.36 1131.2416257102273 422.473832064 1131.2416257102273 417.68 Z" stroke-miterlimit="10"/></g><g transform="translate(-142,-142) scale(1,1)"><path fill="none" stroke="#000000" d="M 1139.9208984375 426.36 L 1139.9208984375 443.64" stroke-miterlimit="10"/></g><g transform="translate(-142,-142) scale(1,1)"><path fill="none" stroke="#000000" d="M 1130.7310802556817 432.84 L 1149.1107166193183 432.84" stroke-miterlimit="10"/></g><g transform="translate(-142,-142) scale(1,1)"><path fill="none" stroke="#000000" d="M 1139.9208984375 443.64 L 1127.1572620738636 461" stroke-miterlimit="10"/></g><g transform="translate(-142,-142) scale(1,1)"><path fill="none" stroke="#000000" d="M 1139.9208984375 443.64 L 1152.6845348011364 461" stroke-miterlimit="10"/></g><g transform="translate(-142,-142) scale(1,1)"><g><path fill="none" stroke="none"/><text fill="#000000" stroke="none" font-family="Arial" font-size="13px" font-style="normal" font-weight="bold" text-decoration="none" x="1112.102294921875" y="481.5">Company</text></g></g><g transform="translate(-142,-142) scale(1,1)"><path fill="#ffffff" stroke="none" d="M 1130.4093503196023 329.68 C 1130.4093503196023 324.886167936 1134.2951926445478 321 1139.088623046875 321 C 1143.8820534492022 321 1147.7678957741477 324.886167936 1147.7678957741477 329.68 C 1147.7678957741477 334.473832064 1143.8820534492022 338.36 1139.088623046875 338.36 C 1134.2951926445478 338.36 1130.4093503196023 334.473832064 1130.4093503196023 329.68 Z"/></g><g transform="translate(-142,-142) scale(1,1)"><path fill="none" stroke="#000000" d="M 1130.4093503196023 329.68 C 1130.4093503196023 324.886167936 1134.2951926445478 321 1139.088623046875 321 C 1143.8820534492022 321 1147.7678957741477 324.886167936 1147.7678957741477 329.68 C 1147.7678957741477 334.473832064 1143.8820534492022 338.36 1139.088623046875 338.36 C 1134.2951926445478 338.36 1130.4093503196023 334.473832064 1130.4093503196023 329.68 Z" stroke-miterlimit="10"/></g><g transform="translate(-142,-142) scale(1,1)"><path fill="none" stroke="#000000" d="M 1139.088623046875 338.36 L 1139.088623046875 355.64" stroke-miterlimit="10"/></g><g transform="translate(-142,-142) scale(1,1)"><path fill="none" stroke="#000000" d="M 1129.8988048650567 344.84 L 1148.2784412286933 344.84" stroke-miterlimit="10"/></g><g transform="translate(-142,-142) scale(1,1)"><path fill="none" stroke="#000000" d="M 1139.088623046875 355.64 L 1126.3249866832386 373" stroke-miterlimit="10"/></g><g transform="translate(-142,-142) scale(1,1)"><path fill="none" stroke="#000000" d="M 1139.088623046875 355.64 L 1151.8522594105114 373" stroke-miterlimit="10"/></g><g transform="translate(-142,-142) scale(1,1)"><g><path fill="none" stroke="none"/><text fill="#000000" stroke="none" font-family="Arial" font-size="13px" font-style="normal" font-weight="bold" text-decoration="none" x="1124.2763671875" y="393.5">Cella</text></g></g><g transform="translate(-142,-142) scale(1,1)"><path fill="#ffffff" stroke="none" d="M 168.40935031960228 489.68 C 168.40935031960228 484.886167936 172.29519264454774 481 177.088623046875 481 C 181.88205344920226 481 185.76789577414772 484.886167936 185.76789577414772 489.68 C 185.76789577414772 494.473832064 181.88205344920226 498.36 177.088623046875 498.36 C 172.29519264454774 498.36 168.40935031960228 494.473832064 168.40935031960228 489.68 Z"/></g><g transform="translate(-142,-142) scale(1,1)"><path fill="none" stroke="#000000" d="M 168.40935031960228 489.68 C 168.40935031960228 484.886167936 172.29519264454774 481 177.088623046875 481 C 181.88205344920226 481 185.76789577414772 484.886167936 185.76789577414772 489.68 C 185.76789577414772 494.473832064 181.88205344920226 498.36 177.088623046875 498.36 C 172.29519264454774 498.36 168.40935031960228 494.473832064 168.40935031960228 489.68 Z" stroke-miterlimit="10"/></g><g transform="translate(-142,-142) scale(1,1)"><path fill="none" stroke="#000000" d="M 177.088623046875 498.36 L 177.088623046875 515.64" stroke-miterlimit="10"/></g><g transform="translate(-142,-142) scale(1,1)"><path fill="none" stroke="#000000" d="M 167.89880486505683 504.84 L 186.27844122869317 504.84" stroke-miterlimit="10"/></g><g transform="translate(-142,-142) scale(1,1)"><path fill="none" stroke="#000000" d="M 177.088623046875 515.64 L 164.32498668323865 533" stroke-miterlimit="10"/></g><g transform="translate(-142,-142) scale(1,1)"><path fill="none" stroke="#000000" d="M 177.088623046875 515.64 L 189.85225941051135 533" stroke-miterlimit="10"/></g><g transform="translate(-142,-142) scale(1,1)"><g><path fill="none" stroke="none"/><text fill="#000000" stroke="none" font-family="Arial" font-size="13px" font-style="normal" font-weight="bold" text-decoration="none" x="163.364990234375" y="553.5">User</text></g></g><g transform="translate(-142,-142) scale(1,1)"><path fill="#C0C0C0" stroke="none" d="M 239 526 C 239 516.6111584 261.6096176 509 289.5 509 C 317.3903824 509 340 516.6111584 340 526 C 340 535.3888416 317.3903824 543 289.5 543 C 261.6096176 543 239 535.3888416 239 526 Z" opacity="0.2"/></g><g transform="translate(-142,-142) scale(1,1)"><path fill="#ffffff" stroke="none" d="M 232 519 C 232 509.6111584 254.6096176 502 282.5 502 C 310.3903824 502 333 509.6111584 333 519 C 333 528.3888416 310.3903824 536 282.5 536 C 254.6096176 536 232 528.3888416 232 519 Z"/></g><g transform="translate(-142,-142) scale(1,1)"><path fill="none" stroke="#000000" d="M 232 519 C 232 509.6111584 254.6096176 502 282.5 502 C 310.3903824 502 333 509.6111584 333 519 C 333 528.3888416 310.3903824 536 282.5 536 C 254.6096176 536 232 528.3888416 232 519 Z" stroke-miterlimit="10"/></g><g transform="translate(-142,-142) scale(1,1)"><g><path fill="none" stroke="none"/><text fill="#000000" stroke="none" font-family="Arial" font-size="13px" font-style="normal" font-weight="bold" text-decoration="none" x="266.595947265625" y="526">Login</text></g></g><g transform="translate(-142,-142) scale(1,1)"><path fill="none" stroke="#000000" d="M 203 519 L 231 519" stroke-miterlimit="10"/></g><g transform="translate(-142,-142) scale(1,1)"><path fill="none" stroke="#000000" d="M 282 501 L 288 208 L 343 207" stroke-miterlimit="10"/></g><g transform="translate(-142,-142) scale(1,1)"><path fill="none" stroke="#000000" d="M 282 537 L 280 760 L 335 759" stroke-miterlimit="10"/></g><g transform="translate(-142,-142) scale(1,1)"><path fill="none" stroke="#000000" d="M 1113 368 L 1046 391" stroke-miterlimit="10"/></g><g transform="translate(-142,-142) scale(1,1)"><path fill="none" stroke="#000000" d="M 1103 438 L 1046 423" stroke-miterlimit="10"/></g><g transform="translate(-142,-142) scale(1,1)"><path fill="#ffffff" stroke="none" d="M 1130.4093503196023 505.68 C 1130.4093503196023 500.886167936 1134.2951926445478 497 1139.088623046875 497 C 1143.8820534492022 497 1147.7678957741477 500.886167936 1147.7678957741477 505.68 C 1147.7678957741477 510.473832064 1143.8820534492022 514.36 1139.088623046875 514.36 C 1134.2951926445478 514.36 1130.4093503196023 510.473832064 1130.4093503196023 505.68 Z"/></g><g transform="translate(-142,-142) scale(1,1)"><path fill="none" stroke="#000000" d="M 1130.4093503196023 505.68 C 1130.4093503196023 500.886167936 1134.2951926445478 497 1139.088623046875 497 C 1143.8820534492022 497 1147.7678957741477 500.886167936 1147.7678957741477 505.68 C 1147.7678957741477 510.473832064 1143.8820534492022 514.36 1139.088623046875 514.36 C 1134.2951926445478 514.36 1130.4093503196023 510.473832064 1130.4093503196023 505.68 Z" stroke-miterlimit="10"/></g><g transform="translate(-142,-142) scale(1,1)"><path fill="none" stroke="#000000" d="M 1139.088623046875 514.36 L 1139.088623046875 531.64" stroke-miterlimit="10"/></g><g transform="translate(-142,-142) scale(1,1)"><path fill="none" stroke="#000000" d="M 1129.8988048650567 520.84 L 1148.2784412286933 520.84" stroke-miterlimit="10"/></g><g transform="translate(-142,-142) scale(1,1)"><path fill="none" stroke="#000000" d="M 1139.088623046875 531.64 L 1126.3249866832386 549" stroke-miterlimit="10"/></g><g transform="translate(-142,-142) scale(1,1)"><path fill="none" stroke="#000000" d="M 1139.088623046875 531.64 L 1151.8522594105114 549" stroke-miterlimit="10"/></g><g transform="translate(-142,-142) scale(1,1)"><g><path fill="none" stroke="none"/><text fill="#000000" stroke="none" font-family="Arial" font-size="13px" font-style="normal" font-weight="bold" text-decoration="none" x="1122.470458984375" y="569.5">Client</text></g></g><g transform="translate(-142,-142) scale(1,1)"><path fill="none" stroke="#000000" d="M 1113 531 L 1046 521" stroke-miterlimit="10"/></g><g transform="translate(-142,-142) scale(1,1)"><path fill="none" stroke="#000000" d="M 395 221 L 416 232 L 528 232 L 528 320 L 656 320" stroke-miterlimit="10"/></g><g transform="translate(-142,-142) scale(1,1)"><path fill="none" stroke="#000000" d="M 395 216 L 416 224 L 536 224 L 536 392 L 656 391" stroke-miterlimit="10"/></g><g transform="translate(-142,-142) scale(1,1)"><path fill="none" stroke="#000000" d="M 395 212 L 416 216 L 544 216 L 544 464 L 656 463" stroke-miterlimit="10"/></g><g transform="translate(-142,-142) scale(1,1)"><path fill="none" stroke="#000000" d="M 395 194 L 416 184 L 576 184 L 576 528 L 656 530" stroke-miterlimit="10"/></g><g transform="translate(-142,-142) scale(1,1)"><path fill="none" stroke="#000000" d="M 395 199 L 416 192 L 568 192 L 568 600 L 656 602" stroke-miterlimit="10"/></g><g transform="translate(-142,-142) scale(1,1)"><path fill="none" stroke="#000000" d="M 395 203 L 416 200 L 560 200 L 560 672 L 656 673" stroke-miterlimit="10"/></g><g transform="translate(-142,-142) scale(1,1)"><path fill="none" stroke="#000000" d="M 395 207 L 552 208 L 552 744 L 656 745" stroke-miterlimit="10"/></g><g transform="translate(-142,-142) scale(1,1)"><path fill="none" stroke="#000000" d="M 395 225 L 416 240 L 520 241 L 520 248 L 656 249" stroke-miterlimit="10"/></g></g></svg>